<mxfile host="app.diagrams.net" agent="Mozilla/5.0 (Windows NT 10.0; Win64; x64) AppleWebKit/537.36 (KHTML, like Gecko) Chrome/131.0.0.0 Safari/537.36" version="25.0.0">
  <diagram name="Страница — 1" id="b5VbptqPXE5r-bmthNJm">
    <mxGraphModel>
      <root>
        <mxCell id="0" />
        <mxCell id="1" parent="0" />
        <mxCell id="2" value="" style="ellipse;fillColor=strokeColor;" vertex="1" parent="1">
          <mxGeometry x="190" y="168" width="14" height="14" as="geometry" />
        </mxCell>
        <mxCell id="3" value="Система_выключена" style="rounded=1;arcSize=40;strokeWidth=2" vertex="1" parent="1">
          <mxGeometry x="113" y="391" width="169" height="35" as="geometry" />
        </mxCell>
        <mxCell id="4" value="Система_включается" style="swimlane;fontStyle=1;align=center;verticalAlign=middle;startSize=25;container=0;collapsible=0;rounded=1;arcSize=14;dropTarget=0;verticalAlign=top;" vertex="1" parent="1">
          <mxGeometry x="67" y="499" width="260" height="466" as="geometry" />
        </mxCell>
        <mxCell id="5" value="" style="ellipse;fillColor=strokeColor;" vertex="1" parent="4">
          <mxGeometry x="131" y="46" width="14" height="14" as="geometry" />
        </mxCell>
        <mxCell id="6" value="Проверка_компонентов" style="rounded=1;arcSize=40;strokeWidth=2" vertex="1" parent="4">
          <mxGeometry x="43" y="135" width="190" height="35" as="geometry" />
        </mxCell>
        <mxCell id="7" value="Запуск_компонентов" style="rounded=1;arcSize=40;strokeWidth=2" vertex="1" parent="4">
          <mxGeometry x="53" y="268" width="170" height="35" as="geometry" />
        </mxCell>
        <mxCell id="8" value="Готовность" style="rounded=1;arcSize=40;strokeWidth=2" vertex="1" parent="4">
          <mxGeometry x="89" y="401" width="98" height="35" as="geometry" />
        </mxCell>
        <mxCell id="9" value="" style="curved=1;startArrow=none;;exitX=0.51;exitY=0.96;entryX=0.5;entryY=-0.01;" edge="1" parent="4" source="5" target="6">
          <mxGeometry relative="1" as="geometry">
            <Array as="points" />
          </mxGeometry>
        </mxCell>
        <mxCell id="10" value="Компоненты в порядке" style="curved=1;startArrow=none;;exitX=0.5;exitY=0.99;entryX=0.5;entryY=-0.01;" edge="1" parent="4" source="6" target="7">
          <mxGeometry relative="1" as="geometry">
            <Array as="points" />
          </mxGeometry>
        </mxCell>
        <mxCell id="11" value="Запуск завершен" style="curved=1;startArrow=none;;exitX=0.5;exitY=0.99;entryX=0.5;entryY=-0.01;" edge="1" parent="4" source="7" target="8">
          <mxGeometry relative="1" as="geometry">
            <Array as="points" />
          </mxGeometry>
        </mxCell>
        <mxCell id="12" value="Система_включена" style="rounded=1;arcSize=40;strokeWidth=2" vertex="1" parent="1">
          <mxGeometry x="118" y="1038" width="158" height="35" as="geometry" />
        </mxCell>
        <mxCell id="13" value="Режим_ожидания" style="swimlane;fontStyle=1;align=center;verticalAlign=middle;startSize=25;container=0;collapsible=0;rounded=1;arcSize=14;dropTarget=0;verticalAlign=top;" vertex="1" parent="1">
          <mxGeometry x="8" y="1146" width="378" height="333" as="geometry" />
        </mxCell>
        <mxCell id="14" value="" style="ellipse;fillColor=strokeColor;" vertex="1" parent="13">
          <mxGeometry x="185" y="46" width="14" height="14" as="geometry" />
        </mxCell>
        <mxCell id="15" value="Ожидание_события" style="rounded=1;arcSize=40;strokeWidth=2" vertex="1" parent="13">
          <mxGeometry x="112" y="135" width="162" height="35" as="geometry" />
        </mxCell>
        <mxCell id="16" value="Обработка_события" style="rounded=1;arcSize=40;strokeWidth=2" vertex="1" parent="13">
          <mxGeometry x="111" y="268" width="163" height="35" as="geometry" />
        </mxCell>
        <mxCell id="17" value="" style="curved=1;startArrow=none;;exitX=0.53;exitY=0.96;entryX=0.5;entryY=-0.01;" edge="1" parent="13" source="14" target="15">
          <mxGeometry relative="1" as="geometry">
            <Array as="points" />
          </mxGeometry>
        </mxCell>
        <mxCell id="18" value="Событие пришло" style="curved=1;startArrow=none;;exitX=0.36;exitY=0.99;entryX=0.36;entryY=-0.01;" edge="1" parent="13" source="15" target="16">
          <mxGeometry relative="1" as="geometry">
            <Array as="points">
              <mxPoint x="109" y="219" />
            </Array>
          </mxGeometry>
        </mxCell>
        <mxCell id="19" value="Обработка завершена" style="curved=1;startArrow=none;;exitX=0.63;exitY=-0.01;entryX=0.63;entryY=0.99;" edge="1" parent="13" source="16" target="15">
          <mxGeometry relative="1" as="geometry">
            <Array as="points">
              <mxPoint x="276" y="219" />
            </Array>
          </mxGeometry>
        </mxCell>
        <mxCell id="20" value="Работа" style="swimlane;fontStyle=1;align=center;verticalAlign=middle;startSize=25;container=0;collapsible=0;rounded=1;arcSize=14;dropTarget=0;verticalAlign=top;" vertex="1" parent="1">
          <mxGeometry x="254" y="8" width="377" height="333" as="geometry" />
        </mxCell>
        <mxCell id="21" value="" style="ellipse;fillColor=strokeColor;" vertex="1" parent="20">
          <mxGeometry x="179" y="46" width="14" height="14" as="geometry" />
        </mxCell>
        <mxCell id="22" value="Выполнение_задачи" style="rounded=1;arcSize=40;strokeWidth=2" vertex="1" parent="20">
          <mxGeometry x="103" y="135" width="166" height="35" as="geometry" />
        </mxCell>
        <mxCell id="23" value="Проверка" style="rounded=1;arcSize=40;strokeWidth=2" vertex="1" parent="20">
          <mxGeometry x="142" y="268" width="87" height="35" as="geometry" />
        </mxCell>
        <mxCell id="24" value="" style="curved=1;startArrow=none;;exitX=0.49;exitY=0.96;entryX=0.5;entryY=-0.01;" edge="1" parent="20" source="21" target="22">
          <mxGeometry relative="1" as="geometry">
            <Array as="points" />
          </mxGeometry>
        </mxCell>
        <mxCell id="25" value="Новая задача" style="curved=1;startArrow=none;;exitX=0.37;exitY=0.99;entryX=0.25;entryY=-0.01;" edge="1" parent="20" source="22" target="23">
          <mxGeometry relative="1" as="geometry">
            <Array as="points">
              <mxPoint x="103" y="219" />
            </Array>
          </mxGeometry>
        </mxCell>
        <mxCell id="26" value="Задача прошла проверку" style="curved=1;startArrow=none;;exitX=0.76;exitY=-0.01;entryX=0.63;entryY=0.99;" edge="1" parent="20" source="23" target="22">
          <mxGeometry relative="1" as="geometry">
            <Array as="points">
              <mxPoint x="269" y="219" />
            </Array>
          </mxGeometry>
        </mxCell>
        <mxCell id="27" value="" style="curved=1;startArrow=none;;exitX=0.51;exitY=0.96;entryX=0.5;entryY=0;" edge="1" parent="1" source="2" target="3">
          <mxGeometry relative="1" as="geometry">
            <Array as="points" />
          </mxGeometry>
        </mxCell>
        <mxCell id="28" value="Включение" style="curved=1;startArrow=none;;exitX=0.5;exitY=1;entryX=0.5;entryY=0;" edge="1" parent="1" source="3" target="4">
          <mxGeometry relative="1" as="geometry">
            <Array as="points" />
          </mxGeometry>
        </mxCell>
        <mxCell id="29" value="Успешное включение" style="curved=1;startArrow=none;;exitX=0.5;exitY=1;entryX=0.5;entryY=0;" edge="1" parent="1" source="4" target="12">
          <mxGeometry relative="1" as="geometry">
            <Array as="points" />
          </mxGeometry>
        </mxCell>
        <mxCell id="30" value="Вход в режим ожидания" style="curved=1;startArrow=none;;exitX=0.34;exitY=1;entryX=0.33;entryY=0;" edge="1" parent="1" source="12" target="13">
          <mxGeometry relative="1" as="geometry">
            <Array as="points">
              <mxPoint x="120" y="1110" />
            </Array>
          </mxGeometry>
        </mxCell>
        <mxCell id="31" value="Активация" style="curved=1;startArrow=none;;exitX=0.67;exitY=0;entryX=0.66;entryY=1;" edge="1" parent="1" source="13" target="12">
          <mxGeometry relative="1" as="geometry">
            <Array as="points">
              <mxPoint x="274" y="1110" />
            </Array>
          </mxGeometry>
        </mxCell>
      </root>
    </mxGraphModel>
  </diagram>
</mxfile>
